<svg width="233" height="18" viewBox="0 0 233 18" fill="none" xmlns="http://www.w3.org/2000/svg"><g clip-path="url(#clip0_73_406)"><path d="M82.166 14c3.828 0 6.76-1.299 6.76-4.977 0-3.233-2.788-4.812-6.582-4.812h-5.12V14h4.942zm-2.4-7.868h2.824c2.263 0 3.65 1.018 3.65 3 0 1.976-1.442 2.947-3.78 2.947h-2.693V6.132zm16.269 8.162c3.917 0 6.426-2.05 6.426-5.195 0-3.11-2.516-5.182-6.406-5.182-3.93 0-6.446 2.064-6.446 5.182 0 3.144 2.53 5.195 6.426 5.195zm.007-1.962c-2.229 0-3.733-1.237-3.733-3.233 0-1.976 1.49-3.22 3.733-3.22 2.27 0 3.732 1.237 3.732 3.22 0 1.989-1.497 3.233-3.732 3.233zm13.445 1.962c2.659 0 5.195-1.08 5.838-3.657l-2.612-.192c-.403 1.484-1.736 1.887-3.09 1.887-2.221 0-3.78-1.21-3.78-3.268 0-2.01 1.531-3.185 3.726-3.185 1.353 0 2.741.396 3.144 1.893l2.605-.205c-.636-2.57-3.165-3.65-5.913-3.65-3.774 0-6.262 2.071-6.262 5.216 0 3.117 2.474 5.16 6.344 5.16zm12.782 0c3.588 0 5.543-1.62 5.543-4.56V4.211h-2.467v5.441c0 1.703-1.067 2.68-2.981 2.68-1.969 0-2.973-.978-2.973-2.68V4.211h-2.673v5.523c0 2.94 1.955 4.56 5.551 4.56zm9.856-.294V7.964l-.062-1.354.554 1.36 2.946 6.03h2.249l2.967-6.05.533-1.312-.055 1.333V14h2.393V4.21h-3.309l-3.028 6.406-.526 1.614-.52-1.614-3.028-6.405h-3.316V14h2.202zm23.623 0v-1.92h-7.136V9.932h6.002V8.155h-6.002v-2.03h6.965V4.211h-9.536V14h9.707zm4.162 0V8.094l-.048-.848.622.636L166.138 14h2.563V4.21h-2.304v5.907l.048.848-.615-.636-5.599-6.118h-2.625V14h2.304zm16.904 0V6.173h4.156V4.21h-10.896v1.962h4.17V14h2.57zm15.824 0l-4.922-9.79h-3.124L179.684 14h2.673l.888-1.907h5.736l.888 1.907h2.769zm-6.528-8.053l2.057 4.403h-4.108l2.051-4.403zM197.825 14V6.173h4.156V4.21h-10.896v1.962h4.17V14h2.57zm8.093 0V4.21h-2.571V14h2.571zm7.955.294c3.917 0 6.426-2.05 6.426-5.195 0-3.11-2.516-5.182-6.405-5.182-3.931 0-6.447 2.064-6.447 5.182 0 3.144 2.53 5.195 6.426 5.195zm.007-1.962c-2.228 0-3.732-1.237-3.732-3.233 0-1.976 1.49-3.22 3.732-3.22 2.27 0 3.733 1.237 3.733 3.22 0 1.989-1.498 3.233-3.733 3.233zM224.146 14V8.094l-.047-.848.622.636L230.374 14h2.563V4.21h-2.303v5.907l.048.848-.616-.636-5.598-6.118h-2.625V14h2.303z" fill="#242933"/><path fill-rule="evenodd" clip-rule="evenodd" d="M0 9a6 6 0 1112 0A6 6 0 010 9zm16 0a6 6 0 1112 0 6 6 0 01-12 0zm24-6a6 6 0 000 12h18a6 6 0 000-12H40z" fill="#0066E5"/></g><defs><clipPath id="clip0_73_406"><path fill="#fff" d="M0 0h233v18H0z"/></clipPath></defs></svg>