<svg width="233" height="18" viewBox="0 0 233 18" fill="none" xmlns="http://www.w3.org/2000/svg"><g clip-path="url(#clip0_45_459)"><path d="M89.474 4.21H79.302v3.228c0 3.445-.199 4.648-1.928 4.648h-1.066v3.746h2.337V14h10.357v1.832h2.324v-3.746h-1.852V4.21zm-8.703 7.876c.711-.882 1.108-2.31 1.108-4.614V6.125h5.01v5.96h-6.117zm17.767 2.208c3.917 0 6.426-2.05 6.426-5.195 0-3.11-2.516-5.182-6.405-5.182-3.931 0-6.447 2.064-6.447 5.182 0 3.144 2.53 5.195 6.426 5.195zm.007-1.962c-2.229 0-3.733-1.237-3.733-3.233 0-1.976 1.49-3.22 3.733-3.22 2.269 0 3.732 1.237 3.732 3.22 0 1.989-1.497 3.233-3.732 3.233zM114 7.896l2.782-3.685h-2.919L111 8.148l-1.866.007V4.211h-2.571V14h2.571v-3.93H111l2.871 3.93h2.871l-2.734-3.678-1.06-1.217 1.053-1.21zm6.262 6.343c1.415 0 2.262-.567 3.151-2.133l4.286-7.895h-2.844l-2.337 5.175-2.496-5.175h-2.946l4.15 6.986-.219.458c-.301.622-.656.848-1.292.848-.65 0-1.108-.212-1.422-.342l-.451 1.531c.492.246 1.463.547 2.42.547zM131.077 14V7.964l-.061-1.354.553 1.36 2.947 6.03h2.249l2.966-6.05.534-1.312-.055 1.333V14h2.393V4.21h-3.309l-3.028 6.406-.527 1.614-.519-1.614-3.029-6.405h-3.315V14h2.201zm23.68 0v-1.92h-7.137V9.932h6.002V8.155h-6.002v-2.03h6.966V4.211h-9.536V14h9.707zm4.484 0V9.96h5.954V14h2.571V4.21h-2.571v3.836h-5.954V4.21h-2.57V14h2.57zm16.694 0V6.173h4.156V4.21h-10.897v1.962h4.17V14h2.571zm15.797 0l-4.921-9.79h-3.124L178.778 14h2.673l.889-1.907h5.735l.889 1.907h2.768zm-6.528-8.053l2.058 4.403h-4.109l2.051-4.403zm18.799-1.736h-2.57v7.875h-5.784V4.21h-2.57V14h10.466v1.832h2.338v-3.746h-1.88V4.21zM209.971 14l5.653-6.118.622-.636-.048.848V14h2.304V4.21h-2.611l-5.606 6.12-.622.635.048-.848V4.211h-2.304V14h2.564zm15.346-9.79c-2.741 0-4.696.76-4.696 3.063 0 1.9 1.313 2.721 2.762 3.063a2.273 2.273 0 00-.691.629c-.054.055-.095.123-.143.184-.547.773-.643.93-1.292.93h-.588V14h1.641c1.285 0 1.627-.937 2.139-1.764l.417-.588c.431-.724 1.019-1.08 1.675-1.08h1.859V14h2.523V4.21h-5.606zm-.109 4.52c-1.21 0-1.88-.274-1.88-1.388 0-1.032.841-1.258 1.962-1.258h3.11v2.645h-3.192z" fill="#242933"/><path fill-rule="evenodd" clip-rule="evenodd" d="M0 9a6 6 0 1112 0A6 6 0 010 9zm16 0a6 6 0 1112 0 6 6 0 01-12 0zm24-6a6 6 0 000 12h18a6 6 0 000-12H40z" fill="#0066E5"/></g><defs><clipPath id="clip0_45_459"><path fill="#fff" d="M0 0h233v18H0z"/></clipPath></defs></svg>